<svg xmlns="http://www.w3.org/2000/svg" viewBox="0 0 2804 280" preserveAspectRatio="none">
  <rect width="2804" height="280" fill="#ffffff"/>

  <!-- Blue base, expanded to fill the bottom -->
  <path d="
    M0 420
    C260 465 520 455 780 420
    C1040 385 1300 400 1560 430
    C1820 460 2080 465 2340 438
    C2520 420 2660 405 2804 397
    L2804 561
    L0 561
    Z"
    fill="#144778"/>

  <!-- White separation swoop -->
  <path d="
    M0 392
    C260 438 520 430 780 394
    C1040 358 1300 374 1560 404
    C1820 434 2080 438 2340 412
    C2520 394 2660 382 2804 374"
    fill="none"
    stroke="#ffffff"
    stroke-width="32"
    stroke-linecap="round"/>

  <!-- Orange swoop -->
  <path d="
    M0 358
    C260 408 520 402 780 365
    C1040 328 1300 344 1560 374
    C1820 404 2080 408 2340 382
    C2520 364 2660 350 2804 340"
    fill="none"
    stroke="#ff7a1a"
    stroke-width="34"
    stroke-linecap="round"/>
</svg>
