<svg xmlns="http://www.w3.org/2000/svg" viewBox="0 0 2804 180" preserveAspectRatio="none">
  <rect width="2804" height="180" fill="#ffffff"/>

  <!-- Blue base, kept very shallow to take up less vertical space -->
  <path d="
    M0 140
    C260 154 520 151 780 140
    C1040 129 1300 134 1560 144
    C1820 154 2080 154 2340 146
    C2520 140 2660 135 2804 132
    L2804 180
    L0 180
    Z"
    fill="#144778"/>

  <!-- White separation swoop -->
  <path d="
    M0 128
    C260 142 520 139 780 128
    C1040 117 1300 122 1560 132
    C1820 142 2080 142 2340 134
    C2520 128 2660 124 2804 121"
    fill="none"
    stroke="#ffffff"
    stroke-width="10"
    stroke-linecap="round"/>

  <!-- Orange swoop -->
  <path d="
    M0 116
    C260 132 520 129 780 117
    C1040 105 1300 111 1560 121
    C1820 131 2080 132 2340 124
    C2520 118 2660 113 2804 110"
    fill="none"
    stroke="#ff7a1a"
    stroke-width="12"
    stroke-linecap="round"/>
</svg>
