<svg viewBox="0 0 1440 120" xmlns="http://www.w3.org/2000/svg" preserveAspectRatio="none">
  <!-- Blue base -->
  <path d="
    M0,80
    C120,75 240,85 360,80
    C480,75 600,85 720,80
    C840,75 960,85 1080,80
    C1200,75 1320,85 1440,80
    L1440,120
    L0,120
    Z"
    fill="#1f4a7c"/>

  <!-- White stripe -->
  <path d="
    M0,70
    C120,65 240,75 360,70
    C480,65 600,75 720,70
    C840,65 960,75 1080,70
    C1200,65 1320,75 1440,70"
    fill="none"
    stroke="#ffffff"
    stroke-width="6"
    stroke-linecap="round"/>

  <!-- Orange stripe -->
  <path d="
    M0,60
    C120,55 240,65 360,60
    C480,55 600,65 720,60
    C840,55 960,65 1080,60
    C1200,55 1320,65 1440,60"
    fill="none"
    stroke="#f47c20"
    stroke-width="10"
    stroke-linecap="round"/>
</svg>